<?xml version="1.0" encoding="UTF-8" standalone="no"?>
<!DOCTYPE svg PUBLIC "-//W3C//DTD SVG 1.1//EN" "http://www.w3.org/Graphics/SVG/1.1/DTD/svg11.dtd">
<svg width="100%" height="100%" viewBox="0 0 284 283" version="1.1" xmlns="http://www.w3.org/2000/svg" xmlns:xlink="http://www.w3.org/1999/xlink" xml:space="preserve" xmlns:serif="http://www.serif.com/" style="fill-rule:evenodd;clip-rule:evenodd;stroke-linecap:square;stroke-miterlimit:1.5;">
    <g transform="matrix(1,0,0,1,-374.926,-351.162)">
        <g id="Brain-mesh" serif:id="Brain mesh">
            <g id="Layer1">
                <path d="M450.335,633.979L514.98,576.351L563.917,575.572L586,534.937L636.823,533.51L658.665,477.801L628.127,429.901L552.961,397.447L499.215,401.398L397.477,437.725L374.926,476.631L381.042,514.036L407.483,541.91L415.115,565.172L454.579,571.421L450.335,633.979ZM456.153,622.094L459.877,567.198L418.913,560.712C418.913,560.712 411.884,539.284 411.884,539.284L385.728,511.711C385.728,511.711 380.149,477.59 380.149,477.59C380.149,477.59 400.884,441.818 400.884,441.818C400.884,441.818 500.257,406.335 500.257,406.335C500.257,406.335 552.104,402.523 552.104,402.523C552.104,402.523 624.736,433.883 624.736,433.883C624.736,433.883 653.082,478.344 653.082,478.344C653.082,478.344 633.376,528.605 633.376,528.605C633.376,528.605 582.982,530.019 582.982,530.019L560.918,570.619C560.918,570.619 513.041,571.381 513.041,571.381L456.153,622.094Z" style="fill:rgb(95,95,95);"/>
            </g>
            <g id="Layer2">
                <path d="M478.422,570.959L516.796,552.829L584.264,533.059L655.034,475.462L599.569,449.102L555.293,402.349L534.806,460.234L599.569,449.102L584.264,533.059L534.806,460.234L488.559,513.955L584.264,533.059L488.559,513.955L430.706,513.955L378.63,478.007L430.706,513.955L458.785,448.169L398.684,441.01L458.785,448.169L500.022,402.893L458.785,448.169L534.806,460.234L458.785,448.169L488.559,513.955L430.706,513.955L408.262,538.765L458.087,568.187L488.559,513.955L478.422,570.959Z" style="fill:none;stroke:rgb(95,95,95);stroke-width:4px;"/>
                <path d="M454.579,626.514L478.422,570.959L489.303,515.713L514.98,552.834L514.98,570.959" style="fill:none;stroke:rgb(95,95,95);stroke-width:4px;"/>
            </g>
        </g>
        <g id="Circles">
            <g transform="matrix(-0.000954338,0.781568,-0.781568,-0.000954338,429.901,516.847)">
                <circle cx="0" cy="0" r="9.492" style="fill:rgb(102,153,153);stroke:rgb(95,95,95);stroke-width:7.68px;stroke-linecap:round;stroke-linejoin:round;"/>
            </g>
            <g transform="matrix(-0.175695,0.98794,-0.98794,-0.175695,488.453,511.672)">
                <circle cx="0" cy="0" r="9.492" style="fill:rgb(255,102,51);stroke:rgb(95,95,95);stroke-width:5.98px;stroke-linecap:round;stroke-linejoin:round;"/>
            </g>
            <g transform="matrix(-0.0115577,0.776699,-0.776699,-0.0115577,458.546,449.12)">
                <circle cx="0" cy="0" r="9.492" style="fill:white;stroke:rgb(95,95,95);stroke-width:7.72px;stroke-linecap:round;stroke-linejoin:round;"/>
            </g>
            <g transform="matrix(-0.0115577,0.776699,-0.776699,-0.0115577,540,386.276)">
                <circle cx="0" cy="0" r="9.492" style="fill:rgb(0,255,51);stroke:rgb(95,95,95);stroke-width:7.72px;stroke-linecap:round;stroke-linejoin:round;"/>
            </g>
            <g transform="matrix(-0.0115577,0.776699,-0.776699,-0.0115577,565.31,361.535)">
                <circle cx="0" cy="0" r="9.492" style="fill:white;stroke:rgb(95,95,95);stroke-width:7.72px;stroke-linecap:round;stroke-linejoin:round;"/>
            </g>
            <g transform="matrix(-0.088091,1.23528,-1.23528,-0.088091,534.681,459.842)">
                <circle cx="0" cy="0" r="9.492" style="fill:rgb(255,0,153);stroke:rgb(95,95,95);stroke-width:4.84px;stroke-linecap:round;stroke-linejoin:round;"/>
            </g>
            <g transform="matrix(0.0737842,1.12488,-1.12488,0.0737842,499.078,404.349)">
                <circle cx="0" cy="0" r="9.492" style="fill:rgb(255,102,51);stroke:rgb(95,95,95);stroke-width:5.32px;stroke-linecap:round;stroke-linejoin:round;"/>
            </g>
            <g transform="matrix(0.0737842,1.12488,-1.12488,0.0737842,589.89,386.747)">
                <circle cx="0" cy="0" r="9.492" style="fill:rgb(255,0,153);stroke:rgb(95,95,95);stroke-width:5.32px;stroke-linecap:round;stroke-linejoin:round;"/>
            </g>
            <g transform="matrix(-0.105076,0.878331,-0.878331,-0.105076,599.664,450.617)">
                <circle cx="0" cy="0" r="9.492" style="fill:rgb(102,153,153);stroke:rgb(95,95,95);stroke-width:6.78px;stroke-linecap:round;stroke-linejoin:round;"/>
            </g>
            <g transform="matrix(-0.0781548,1.05963,-1.05963,-0.0781548,582.768,531.351)">
                <circle cx="0" cy="0" r="9.492" style="fill:rgb(0,255,51);stroke:rgb(95,95,95);stroke-width:5.65px;stroke-linecap:round;stroke-linejoin:round;"/>
            </g>
            <g transform="matrix(-0.0115577,0.776699,-0.776699,-0.0115577,452.99,571.176)">
                <circle cx="0" cy="0" r="9.492" style="fill:white;stroke:rgb(95,95,95);stroke-width:7.72px;stroke-linecap:round;stroke-linejoin:round;"/>
            </g>
        </g>
    </g>
</svg>
